<svg width="16" height="14" viewBox="0 0 16 14" fill="none" xmlns="http://www.w3.org/2000/svg">
<path d="M8.5653 1.5H13.5003C14.7706 1.5 15.8195 2.44737 15.9793 3.67409L15.995 3.83562L16.0003 4V11.5C16.0003 12.8255 14.9688 13.91 13.6647 13.9947L13.5003 14H2.50031C1.17482 14 0.0902665 12.9685 0.00562286 11.6644L0.000305176 11.5V4.5H5.07099L5.22416 4.49217C5.52807 4.46098 5.81539 4.33763 6.04732 4.13877L6.15849 4.03312L8.5653 1.5ZM5.16697 0C5.43743 0 5.70182 0.073102 5.93269 0.210162L6.06697 0.3L7.38531 1.289L5.43349 3.34437L5.3727 3.39872C5.308 3.44767 5.23232 3.48017 5.15226 3.49335L5.07099 3.5H0.000305176V2.5C0.000305176 1.17452 1.03184 0.0899613 2.33593 0.00531769L2.50031 0H5.16697Z" fill="white"/>
</svg>
