<svg width="24" height="24" viewBox="0 0 24 24" fill="none" xmlns="http://www.w3.org/2000/svg">
<path d="M12.0002 3C12.5525 3 13.0002 3.44772 13.0002 4V9H15.2501C16.7689 9 18.0001 10.2312 18.0001 11.75V17.5858L19.293 16.2929C19.6835 15.9024 20.3167 15.9024 20.7072 16.2929C21.0978 16.6834 21.0978 17.3166 20.7072 17.7071L17.7072 20.7071C17.3167 21.0976 16.6835 21.0976 16.293 20.7071L13.293 17.7071C12.9025 17.3166 12.9025 16.6834 13.293 16.2929C13.6835 15.9024 14.3167 15.9024 14.7072 16.2929L16.0001 17.5858V11.75C16.0001 11.3358 15.6643 11 15.2501 11H8.75014C8.33592 11 8.00014 11.3358 8.00014 11.75V17.5858L9.29303 16.2929C9.68355 15.9024 10.3167 15.9024 10.7072 16.2929C11.0978 16.6834 11.0978 17.3166 10.7072 17.7071L7.70724 20.7071C7.31672 21.0976 6.68356 21.0976 6.29303 20.7071L3.29302 17.7071C2.90249 17.3166 2.90249 16.6834 3.29301 16.2929C3.68353 15.9024 4.3167 15.9024 4.70723 16.2929L6.00014 17.5858V11.75C6.00014 10.2312 7.23136 9 8.75014 9H11.0002V4C11.0002 3.44772 11.4479 3 12.0002 3Z" fill="#A6A6A6"/>
</svg>
